<svg xmlns="http://www.w3.org/2000/svg" width="47" height="47" viewBox="0 0 47 47" fill="none">
<g clip-path="url(#clip0_2655_119)">
<path fill-rule="evenodd" clip-rule="evenodd" d="M23.4999 26.2697L34.5782 37.348C34.9476 37.7047 35.4422 37.9021 35.9557 37.8976C36.4692 37.8932 36.9603 37.6872 37.3234 37.3241C37.6865 36.961 37.8925 36.4699 37.8969 35.9564C37.9014 35.4429 37.704 34.9483 37.3473 34.5789L26.269 23.5006L37.3473 12.4223C37.704 12.053 37.9014 11.5583 37.8969 11.0448C37.8925 10.5314 37.6865 10.0402 37.3234 9.6771C36.9603 9.31401 36.4692 9.10805 35.9557 9.10359C35.4422 9.09913 34.9476 9.29652 34.5782 9.65324L23.4999 20.7315L12.4216 9.65324C12.0506 9.30533 11.5588 9.11542 11.0503 9.12367C10.5417 9.13193 10.0563 9.33772 9.69682 9.69749C9.3373 10.0573 9.13186 10.5428 9.12396 11.0513C9.11606 11.5599 9.30633 12.0516 9.6545 12.4223L20.7308 23.5006L9.65254 34.5789C9.4655 34.7596 9.31631 34.9757 9.21368 35.2146C9.11104 35.4535 9.05702 35.7105 9.05476 35.9705C9.0525 36.2305 9.10205 36.4884 9.20052 36.7291C9.29898 36.9697 9.4444 37.1884 9.62827 37.3723C9.81214 37.5561 10.0308 37.7016 10.2715 37.8C10.5121 37.8985 10.77 37.948 11.03 37.9458C11.2901 37.9435 11.547 37.8895 11.786 37.7869C12.0249 37.6842 12.241 37.535 12.4216 37.348L23.4999 26.2697Z" fill="white"/>
</g>
<defs>
<clipPath id="clip0_2655_119">
<rect width="47" height="47" fill="white"/>
</clipPath>
</defs>
</svg>