<svg xmlns="http://www.w3.org/2000/svg" width="29" height="23" viewBox="0 0 29 23" fill="none">
  <path d="M19.2686 0.5858L28.4376 10.3688C28.7415 10.6931 28.9099 11.1279 28.9058 11.5776C28.9017 12.0273 28.7254 12.455 28.4157 12.7668L19.0716 22.1707C18.7602 22.4733 18.3453 22.6358 17.9163 22.6231C17.4873 22.6105 17.0785 22.4237 16.778 22.1031C16.4775 21.7824 16.3093 21.3536 16.3096 20.9088C16.31 20.4641 16.4788 20.0391 16.7798 19.7254L23.3043 13.1591L1.63478 12.7153C1.20081 12.7064 0.786239 12.5192 0.482275 12.1949C0.178312 11.8706 0.00985378 11.4357 0.0139589 10.986C0.0180639 10.5362 0.194396 10.1084 0.504165 9.79662C0.813933 9.48487 1.23176 9.31472 1.66574 9.32361L23.3353 9.76737L16.933 2.93636C16.7782 2.77673 16.6552 2.58704 16.5713 2.37839C16.4875 2.16973 16.4444 1.94627 16.4445 1.72106C16.4447 1.49585 16.4881 1.27338 16.5723 1.06665C16.6565 0.859922 16.7797 0.673065 16.9348 0.516982C17.0899 0.3609 17.2737 0.238718 17.4756 0.157567C17.6775 0.0764158 17.8934 0.0379197 18.1106 0.0443257C18.3279 0.0507318 18.5421 0.101911 18.741 0.194878C18.9398 0.287845 19.1192 0.420737 19.2686 0.5858Z" fill="#4A4949"/>
</svg>