<svg width="24" height="19" viewBox="0 0 24 19" fill="none" xmlns="http://www.w3.org/2000/svg">
<path d="M15.9858 1.31231L23.1863 8.99511C23.425 9.24979 23.5572 9.59124 23.554 9.94438C23.5508 10.2975 23.4123 10.6334 23.1692 10.8783L15.8311 18.2633C15.5865 18.501 15.2607 18.6285 14.9238 18.6186C14.5869 18.6087 14.2658 18.462 14.0298 18.2102C13.7938 17.9584 13.6618 17.6216 13.662 17.2724C13.6623 16.9231 13.7949 16.5893 14.0312 16.343L19.1551 11.1863L2.13759 10.8378C1.79679 10.8309 1.47122 10.6839 1.23251 10.4292C0.993803 10.1745 0.86151 9.83295 0.864734 9.47974C0.867957 9.12653 1.00643 8.79055 1.2497 8.54573C1.49297 8.30091 1.8211 8.16729 2.1619 8.17427L19.1794 8.52276L14.1516 3.15825C14.03 3.03288 13.9334 2.88392 13.8675 2.72006C13.8017 2.5562 13.7678 2.38071 13.768 2.20385C13.7681 2.02698 13.8022 1.85228 13.8683 1.68993C13.9344 1.52758 14.0312 1.38084 14.153 1.25827C14.2748 1.13569 14.4192 1.03974 14.5777 0.976011C14.7362 0.912282 14.9057 0.88205 15.0763 0.887081C15.247 0.892111 15.4152 0.932304 15.5714 1.00531C15.7275 1.07832 15.8684 1.18268 15.9858 1.31231Z" fill="#4A4949"/>
</svg>
