<svg width="30" height="31" viewBox="0 0 30 31" fill="none" xmlns="http://www.w3.org/2000/svg">
<path d="M27.7817 0.000216735H2.21831C1.93095 -0.00388237 1.64563 0.0501997 1.37862 0.159374C1.11162 0.268549 0.868164 0.430678 0.662169 0.636501C0.456175 0.842325 0.291672 1.08781 0.178056 1.35894C0.0644402 1.63007 0.00393621 1.92154 0 2.21669V28.7833C0.00393621 29.0785 0.0644402 29.3699 0.178056 29.6411C0.291672 29.9122 0.456175 30.1577 0.662169 30.3635C0.868164 30.5693 1.11162 30.7314 1.37862 30.8406C1.64563 30.9498 1.93095 31.0039 2.21831 30.9998H27.7817C28.069 31.0039 28.3544 30.9498 28.6214 30.8406C28.8884 30.7314 29.1318 30.5693 29.3378 30.3635C29.5438 30.1577 29.7083 29.9122 29.8219 29.6411C29.9356 29.3699 29.9961 29.0785 30 28.7833V2.21669C29.9961 1.92154 29.9356 1.63007 29.8219 1.35894C29.7083 1.08781 29.5438 0.842325 29.3378 0.636501C29.1318 0.430678 28.8884 0.268549 28.6214 0.159374C28.3544 0.0501997 28.069 -0.00388237 27.7817 0.000216735ZM9.0996 25.9469H4.57243V11.997H9.0996V25.9469ZM6.83602 10.0441C6.21166 10.0441 5.61288 9.78933 5.1714 9.33587C4.72991 8.88241 4.48189 8.26739 4.48189 7.62611C4.48189 6.98483 4.72991 6.36981 5.1714 5.91635C5.61288 5.46289 6.21166 5.20814 6.83602 5.20814C7.16755 5.16953 7.50328 5.20327 7.82124 5.30716C8.1392 5.41106 8.4322 5.58276 8.68107 5.81103C8.92994 6.03929 9.12906 6.31898 9.2654 6.63177C9.40173 6.94456 9.47221 7.2834 9.47221 7.62611C9.47221 7.96882 9.40173 8.30766 9.2654 8.62045C9.12906 8.93324 8.92994 9.21293 8.68107 9.44119C8.4322 9.66946 8.1392 9.84116 7.82124 9.94506C7.50328 10.049 7.16755 10.0827 6.83602 10.0441ZM25.4276 25.9469H20.9004V18.4605C20.9004 16.585 20.2515 15.3605 18.6066 15.3605C18.0976 15.3643 17.6019 15.5283 17.1864 15.8304C16.7708 16.1325 16.4555 16.5581 16.2827 17.05C16.1646 17.4143 16.1134 17.798 16.1318 18.1815V25.9314H11.6046V11.9815H16.1318V13.95C16.5431 13.217 17.1412 12.6132 17.8618 12.2035C18.5825 11.7938 19.3982 11.5938 20.2213 11.6251C23.2394 11.6251 25.4276 13.6245 25.4276 17.918V25.9469Z" fill="#F2F2F2"/>
</svg>
