<svg width="45" height="32" viewBox="0 0 45 32" fill="none" xmlns="http://www.w3.org/2000/svg">
<path d="M45 28.8154C45 30.034 43.9965 31.02 42.7612 31.02H24.7388C24.145 31.02 23.5756 30.7877 23.1557 30.3743C22.7359 29.9608 22.5 29.4001 22.5 28.8154C22.5 28.2307 22.7359 27.6699 23.1557 27.2564C23.5756 26.843 24.145 26.6107 24.7388 26.6107H42.7612C43.9987 26.6107 45 27.5967 45 28.8154ZM45 15.51C45 16.7286 43.9965 17.7146 42.7612 17.7146H2.23875C1.645 17.7146 1.07556 17.4824 0.655715 17.0689C0.235868 16.6555 0 16.0947 0 15.51C0 14.9253 0.235868 14.3645 0.655715 13.9511C1.07556 13.5376 1.645 13.3054 2.23875 13.3054H42.7612C43.9987 13.3054 45 14.2936 45 15.51ZM42.7612 4.40927C43.355 4.40927 43.9244 4.177 44.3443 3.76355C44.7641 3.3501 45 2.78934 45 2.20464C45 1.61993 44.7641 1.05917 44.3443 0.645722C43.9244 0.232273 43.355 1.74256e-08 42.7612 0H15.7387C15.4448 -8.62828e-09 15.1536 0.0570246 14.882 0.167818C14.6104 0.278611 14.3636 0.441003 14.1557 0.645722C13.9478 0.850442 13.7829 1.09348 13.6704 1.36096C13.5579 1.62844 13.5 1.91512 13.5 2.20464C13.5 2.49415 13.5579 2.78083 13.6704 3.04831C13.7829 3.31579 13.9478 3.55883 14.1557 3.76355C14.3636 3.96827 14.6104 4.13066 14.882 4.24145C15.1536 4.35225 15.4448 4.40927 15.7387 4.40927H42.7612Z" fill="white"/>
</svg>
